# xmcd
#
# Track frame offsets:
#	150
#	23010
#	32550
#	43183
#	57539
#	66854
#	84372
#	96559
#	113587
#	130832
#	145881
#	158869
#	167388
#	180838
#	192457
#	205909
#	213402
#	227560
#
# Disc length: 3292 seconds
#
# Revision: 1
# Processed by: cddbd v1.5.2PL0 Copyright (c) Steve Scherf et al.
# Submitted via: audiograbber 1.83.01
#
DISCID=f30cda12
DTITLE=Hank Williams - The Unreleased Recordings CD3
DYEAR=2008
DGENRE=Country
TTITLE0=Pictures from Life's Other Side
TTITLE1=I'll Fly Away
TTITLE2=Cold, Cold Heart
TTITLE3=Have I Told You Lately That I Love You
TTITLE4=When God Dips His Love in My Heart
TTITLE5=Thy Burdens Are Greater Than Mine
TTITLE6=When the Saints Go Marchin' In
TTITLE7=I'll Sail My Ship Alone
TTITLE8=Wedding Bells
TTITLE9=Mind Your Own Business
TTITLE10=You Blotted My Happy Schooldays
TTITLE11=Where the Soul Never Dies
TTITLE12=Pins and Needles (In My Heart)
TTITLE13=Tennessee Border
TTITLE14=There's Nothing as Sweet as My Baby
TTITLE15=Wait for the Light to Shine
TTITLE16=If I Didn't Love You
TTITLE17=The Pale Horse and His Rider
EXTD=
EXTT0=
EXTT1=
EXTT2=
EXTT3=
EXTT4=
EXTT5=
EXTT6=
EXTT7=
EXTT8=
EXTT9=
EXTT10=
EXTT11=
EXTT12=
EXTT13=
EXTT14=
EXTT15=
EXTT16=
EXTT17=
PLAYORDER=
